<?xml version="1.0"?>
<svg xmlns="http://www.w3.org/2000/svg" viewBox="0 0 50 50">
    <path d="M 25 2 C 22.2 2 20 4.2 20 7 C 20 9.8 22.2 12 25 12 C 27.8 12 30 9.8 30 7 C 30 4.2 27.8 2 25 2 z M 35.9375 5.96875 A 1.0001 1.0001 0 0 0 35.8125 6 A 1.0001 1.0001 0 0 0 35.125 6.5 L 32.90625 10.40625 L 32.5 10.15625 A 1.0001 1.0001 0 0 0 31.84375 10 A 1.0001 1.0001 0 0 0 31.5 11.84375 L 31.9375 12.09375 L 31.21875 13.34375 C 30.895748 13.2266 30.545259 13.129526 30.1875 13.09375 L 30 13.09375 L 20 13.09375 L 19.90625 13.09375 C 18.90625 13.19375 18.00625 13.7 17.40625 14.5 L 14 20.5 C 13.7 21 13.50625 21.5875 13.40625 22.1875 L 12 28.6875 C 11.9 29.1875 12.10625 29.7875 12.40625 30.1875 C 12.70625 30.5875 13.1875 30.9 13.6875 31 C 14.7875 31.2 15.8 30.4125 16 29.3125 L 17.1875 23.90625 L 19.8125 19.1875 L 20 24 L 19.8125 26 L 30.1875 26 L 30 24.09375 L 30.1875 19.1875 L 32.8125 23.90625 L 34 29.3125 C 34.2 30.4125 35.2125 31.2 36.3125 31 C 37.4125 30.8 38.1 29.7875 38 28.6875 L 36.6875 22.1875 C 36.5875 21.5875 36.39375 21 36.09375 20.5 L 32.78125 14.59375 A 1.0077822 1.0077822 0 0 0 32.875 14.5 L 33.65625 13.125 L 34 13.34375 A 1.0001 1.0001 0 1 0 35 11.65625 L 34.625 11.4375 L 36.875 7.5 A 1.0001 1.0001 0 0 0 35.9375 5.96875 z M 23 6 L 27 6 C 27.6 6 28 6.4 28 7 C 28 7.6 27.6 8 27 8 L 23 8 C 22.4 8 22 7.6 22 7 C 22 6.4 22.4 6 23 6 z M 19.59375 28 L 17.40625 45.1875 C 17.30625 45.8875 17.49375 46.6875 18.09375 47.1875 C 18.59375 47.6875 19.20625 48 19.90625 48 L 20 48 C 21.2 47.9 22.1125 47.10625 22.3125 45.90625 L 24 32 L 26 32 L 27.59375 45.90625 C 27.79375 47.00625 28.80625 47.9 29.90625 48 C 30.60625 48 31.40625 47.6875 31.90625 47.1875 C 32.40625 46.6875 32.59375 45.8875 32.59375 45.1875 L 30.40625 28 L 19.59375 28 z"/>
</svg>
