<?xml version="1.0"?>
<svg xmlns="http://www.w3.org/2000/svg" viewBox="0 0 50 50">
    <path style="text-indent:0;text-align:start;line-height:normal;text-transform:none;block-progression:tb;-inkscape-font-specification:Sans" d="M 25 2 C 22.250421 2 20 4.2504209 20 7 C 20 9.7495791 22.250421 12 25 12 C 27.749579 12 30 9.7495791 30 7 C 30 4.2504209 27.749579 2 25 2 z M 25 4 C 26.668699 4 28 5.3313011 28 7 C 28 8.6686989 26.668699 10 25 10 C 23.331301 10 22 8.6686989 22 7 C 22 5.3313011 23.331301 4 25 4 z M 35.9375 5.96875 A 1.0001 1.0001 0 0 0 35.8125 6 A 1.0001 1.0001 0 0 0 35.125 6.5 L 32.90625 10.375 L 32.53125 10.15625 A 1.0001 1.0001 0 0 0 31.875 10.03125 A 1.0001 1.0001 0 0 0 31.53125 11.875 L 31.90625 12.09375 L 31.21875 13.3125 C 30.993219 13.239205 30.764747 13.196166 30.53125 13.15625 A 1.0001 1.0001 0 0 0 30 13 L 20 13 A 1.0001 1.0001 0 0 0 19.90625 13 A 1.0001 1.0001 0 0 0 19.53125 13.125 A 1.0001 1.0001 0 0 0 19.5 13.15625 C 18.561853 13.31392 17.637855 13.721402 17 14.53125 A 1.0001 1.0001 0 0 0 16.9375 14.625 L 13.5625 20.21875 C 13.215758 20.793314 12.969827 21.431212 12.875 22.09375 L 12.03125 28.15625 C 11.836288 29.511069 12.801625 30.773816 14.15625 30.96875 C 15.511069 31.163712 16.773816 30.198375 16.96875 28.84375 L 17.65625 24.09375 L 19.40625 21.3125 L 19.5625 23.96875 L 19.5625 24.03125 L 17.03125 44.625 C 16.805715 46.457472 18.312181 48.096432 20.15625 48 C 21.540978 47.92681 22.722151 46.897259 22.96875 45.53125 A 1.0001 1.0001 0 0 0 22.96875 45.46875 L 24.46875 33 L 25.53125 33 L 27.03125 45.46875 A 1.0001 1.0001 0 0 0 27.03125 45.53125 C 27.277723 46.896563 28.458442 47.926853 29.84375 48 C 31.687819 48.09643 33.194285 46.457472 32.96875 44.625 L 30.4375 24.03125 L 30.4375 23.96875 L 30.59375 21.3125 L 32.34375 24.09375 L 33.03125 28.84375 C 33.226184 30.198375 34.488931 31.163712 35.84375 30.96875 C 37.199985 30.775238 38.16201 29.510725 37.96875 28.15625 L 37.125 22.09375 C 37.03017 21.431212 36.784242 20.793314 36.4375 20.21875 L 33.0625 14.625 A 1.0001 1.0001 0 0 0 33 14.53125 C 32.971937 14.49562 32.935316 14.471587 32.90625 14.4375 L 33.65625 13.125 L 34.03125 13.34375 A 1.0001 1.0001 0 1 0 35.03125 11.625 L 34.65625 11.40625 L 36.875 7.5 A 1.0001 1.0001 0 0 0 35.9375 5.96875 z M 24 6 C 23.448 6 23 6.448 23 7 C 23 7.552 23.448 8 24 8 L 26 8 C 26.552 8 27 7.552 27 7 C 27 6.448 26.552 6 26 6 L 24 6 z M 20.0625 15 L 20.25 15 L 29.84375 15 L 29.9375 15 C 30.485277 15.0268 31.004294 15.28215 31.375 15.71875 L 34.71875 21.25 C 34.926008 21.593436 35.067827 21.975538 35.125 22.375 L 36 28.4375 C 36.04074 28.723025 35.846265 28.959512 35.5625 29 C 35.277319 29.041038 35.041066 28.847875 35 28.5625 L 34.28125 23.59375 A 1.0001 1.0001 0 0 0 34.15625 23.1875 L 30.625 17.5625 A 1.0001 1.0001 0 0 0 28.78125 18.03125 L 28.4375 24.03125 A 1.0001 1.0001 0 0 0 28.4375 24.1875 L 28.65625 26 L 21.34375 26 L 21.5625 24.1875 A 1.0001 1.0001 0 0 0 21.5625 24.03125 L 21.21875 18.03125 A 1.0001 1.0001 0 0 0 19.375 17.5625 L 15.84375 23.1875 A 1.0001 1.0001 0 0 0 15.71875 23.59375 L 15 28.5625 C 14.958934 28.847875 14.722681 29.041038 14.4375 29 C 14.152125 28.958934 13.958962 28.722681 14 28.4375 L 14.875 22.375 C 14.93217 21.975538 15.073992 21.593436 15.28125 21.25 L 18.625 15.71875 C 18.995962 15.28181 19.516267 15.026073 20.0625 15 z M 21.09375 28 L 28.90625 28 L 31 44.875 C 31.07847 45.512528 30.579431 46.033568 29.9375 46 C 29.483533 45.97603 29.13184 45.655989 29.03125 45.21875 L 27.4375 31.875 A 1.0001 1.0001 0 0 0 26.4375 31 L 23.5625 31 A 1.0001 1.0001 0 0 0 22.5625 31.875 L 20.96875 45.21875 C 20.868168 45.655415 20.515097 45.976076 20.0625 46 C 19.420569 46.033568 18.921535 45.512528 19 44.875 L 21.09375 28 z" overflow="visible" font-family="Sans"/>
</svg>
