<?xml version="1.0"?>
<svg xmlns="http://www.w3.org/2000/svg" viewBox="0 0 24 24">
    <path d="M 8 2 C 6.619 2 6 5.343 6 7 L 6 11 L 3.53125 11.625 C 2.46725 11.921 1.86025 12.9985 2.15625 14.0625 C 2.45225 15.1265 3.561 15.76475 4.625 15.46875 L 7 15 L 8 15 C 9.657 15 11.15625 16.791 11.15625 19 C 11.15625 19.313 11.1135 19.61325 11.0625 19.90625 C 11.3695 19.96225 11.679 20 12 20 C 12.321 20 12.6305 19.96225 12.9375 19.90625 C 12.8865 19.61425 12.84375 19.313 12.84375 19 C 12.84375 16.791 14.343 15 16 15 L 17 15 L 19.375 15.46875 C 20.439 15.76475 21.54775 15.1265 21.84375 14.0625 C 22.13975 12.9985 21.53275 11.921 20.46875 11.625 L 18 11 L 18 7 C 18 5.343 17.381 2 16 2 C 14.885 2 13.447 4.88475 13.125 6.09375 C 12.759 6.03575 12.387 6 12 6 C 11.613 6 11.241 6.03675 10.875 6.09375 C 10.551 4.88575 9.114 2 8 2 z M 10 8 C 10.552 8 11 8.448 11 9 C 11 9.552 10.552 10 10 10 C 9.448 10 9 9.552 9 9 C 9 8.448 9.448 8 10 8 z M 14 8 C 14.552 8 15 8.448 15 9 C 15 9.552 14.552 10 14 10 C 13.448 10 13 9.552 13 9 C 13 8.448 13.448 8 14 8 z M 12 11 C 12.552 11 13 11.224 13 11.5 C 13 11.776 12.552 12 12 12 C 11.448 12 11 11.776 11 11.5 C 11 11.224 11.448 11 12 11 z M 7.5 16 C 6.98 16 6.49375 16.20525 6.09375 16.53125 C 5.43075 17.07025 5 17.967 5 19 C 5 20.657 6.119 22 7.5 22 C 8.685 22 9.6805 21.0155 9.9375 19.6875 C 9.9795 19.4685 10 19.235 10 19 C 10 17.343 8.881 16 7.5 16 z M 16.5 16 C 15.119 16 14 17.343 14 19 C 14 19.235 14.0205 19.4685 14.0625 19.6875 C 14.3195 21.0155 15.315 22 16.5 22 C 17.881 22 19 20.657 19 19 C 19 17.967 18.56825 17.07025 17.90625 16.53125 C 17.50625 16.20525 17.02 16 16.5 16 z"/>
</svg>
